<svg xmlns="http://www.w3.org/2000/svg" xmlns:xlink="http://www.w3.org/1999/xlink" fill="none" version="1.1" width="20" height="20" viewBox="0 0 20 20"><defs><clipPath id="master_svg0_109_14198"><rect x="0" y="0" width="20" height="20" rx="0"/></clipPath></defs><g clip-path="url(#master_svg0_109_14198)"><g><path d="M10,1.25C5.16797,1.25,1.25,5.16797,1.25,10C1.25,14.832,5.16797,18.75,10,18.75C14.832,18.75,18.75,14.832,18.75,10C18.75,5.16797,14.832,1.25,10,1.25ZM13.7793,7.14258L9.66602,12.8457C9.41797,13.1914,8.9043,13.1914,8.65625,12.8457L6.2207,9.4707C6.14648,9.36719,6.2207,9.222660000000001,6.34766,9.222660000000001L7.26367,9.222660000000001C7.46289,9.222660000000001,7.65234,9.31836,7.76953,9.48242L9.160160000000001,11.4121L12.2305,7.1543C12.3477,6.99219,12.5352,6.89453,12.7363,6.89453L13.6523,6.89453C13.7793,6.89453,13.8535,7.03906,13.7793,7.14258Z" fill="#FF6A6A" fill-opacity="1"/></g></g></svg>