<svg xmlns="http://www.w3.org/2000/svg" xmlns:xlink="http://www.w3.org/1999/xlink" fill="none" version="1.1" width="44" height="44" viewBox="0 0 44 44"><defs><clipPath id="master_svg0_109_14216"><rect x="0" y="0" width="44" height="44" rx="0"/></clipPath></defs><g clip-path="url(#master_svg0_109_14216)"><g><path d="" fill="#D8D8D8" fill-opacity="0"/></g><g><path d="M27.7246,2.7249762153625L35.1055,10.2266755859375L35.1055,27.8358755859375C37.5147,28.9432755859375,39.1875,31.3778755859375,39.1875,34.2030755859375C39.1875,38.0711755859375,36.0517,41.2069755859375,32.1836,41.2069755859375C32.0526,41.2069755859375,31.9224,41.2033755859375,31.7932,41.1962755859375C31.6396,41.2151755859375,31.4831,41.2249755859375,31.3242,41.2249755859375L5.84375,41.2249755859375C5.274199,41.2249755859375,4.8125,40.7632755859375,4.8125,40.1937755859375L4.8125,3.7562255859375C4.8125,3.1866745859375,5.274199,2.7249755859375,5.84375,2.7249755859375L27.7246,2.7249762153625Z" fill="#C5C5C5" fill-opacity="0.4000000059604645"/></g><g><path d="M10.09765625,14.99609375L29.69138125,14.99609375Q29.86328125,14.99609375,29.86328125,15.16796875L29.86328125,15.85546875Q29.86328125,16.02734375,29.69138125,16.02734375L10.09765625,16.02734375Q9.92578125,16.02734375,9.92578125,15.85546875L9.92578125,15.16796875Q9.92578125,14.99609375,10.09765625,14.99609375Z" fill="#ABABAB" fill-opacity="0.5740000009536743"/></g><g><path d="M10.09765625,22.90234375L29.69138125,22.90234375Q29.86328125,22.90234375,29.86328125,23.07421875L29.86328125,23.76171875Q29.86328125,23.93359375,29.69138125,23.93359375L10.09765625,23.93359375Q9.92578125,23.93359375,9.92578125,23.76171875L9.92578125,23.07421875Q9.92578125,22.90234375,10.09765625,22.90234375Z" fill="#ABABAB" fill-opacity="0.5740000009536743"/></g><g><path d="M10.09765625,30.80859375L19.72266125,30.80859375Q19.89453125,30.80859375,19.89453125,30.98046875L19.89453125,31.66796875Q19.89453125,31.83984375,19.72266125,31.83984375L10.09765625,31.83984375Q9.92578125,31.83984375,9.92578125,31.66796875L9.92578125,30.98046875Q9.92578125,30.80859375,10.09765625,30.80859375Z" fill="#ABABAB" fill-opacity="0.5740000009536743"/></g><g><path d="M25.1796875,34.20311875C25.17968917847,38.07131875,28.3154475,41.20701875,32.1835975,41.20701875C36.0517875,41.20701875,39.1874875,38.07131875,39.1874875,34.20311875C39.1874875,30.33496875,36.0517875,27.19921875,32.1835975,27.19921875C28.3154475,27.19921875,25.17968917847,30.33496875,25.1796875,34.20311875Z" fill="#C5C5C5" fill-opacity="0.460999995470047"/></g><g><path d="M27.724609375,2.7249755859375L27.724609375,9.5391755859375C27.724609375,9.9188455859375,28.032394375,10.2266755859375,28.412107375,10.2266755859375L35.105439375,10.2266755859375L27.724609375,2.7249755859375Z" fill="#ABABAB" fill-opacity="0.6000000238418579"/></g><g><path d="M32.892583125,36.501956875C32.987503125,36.501956875,33.064453125,36.578906875,33.064453125,36.673826875L33.064453125,38.048826875C33.064453125,38.143756875,32.987503125,38.220706875,32.892583125,38.220706875L31.517578125,38.220706875C31.422654125,38.220706875,31.345703125,38.143756875,31.345703125,38.048826875L31.345703125,36.673826875C31.345703125,36.578906875,31.422654125,36.501956875,31.517578125,36.501956875L32.892583125,36.501956875ZM32.806643125,30.185546875C32.901563125,30.185546875,32.978513125,30.262497875,32.978513125,30.357421875L32.978513125,35.470706875C32.978513125,35.565626875,32.901563125,35.642576875,32.806643125,35.642576875L31.603515125,35.642576875C31.508591125,35.642576875,31.431640625,35.565626875,31.431640625,35.470706875L31.431640625,30.357421875C31.431640625,30.262497875,31.508591125,30.185546875,31.603515125,30.185546875L32.806643125,30.185546875Z" fill="#000000" fill-opacity="0.3019999861717224"/></g></g></svg>